<svg width="187" height="40" viewBox="0 0 187 40" fill="none" xmlns="http://www.w3.org/2000/svg">
<path d="M36.2015 31.1919C36.2015 31.0147 36.3187 30.8966 36.4945 30.8966C36.641 30.8966 36.7875 31.0442 36.7875 31.1919C36.7875 31.369 36.6703 31.4872 36.4945 31.4872C36.348 31.4872 36.2015 31.3395 36.2015 31.1919ZM68.4357 34.4696C68.4357 35.9166 69.4027 36.3595 70.1939 36.3595C71.073 36.3595 71.8935 35.7689 71.8935 34.5287C71.8935 33.3475 71.1903 32.6683 70.2232 32.6683C68.7873 32.6683 68.4357 33.7314 68.4357 34.4696ZM68.084 32.4026H68.4943V33.2294C68.7287 32.7569 69.2562 32.2845 70.2232 32.2845C71.6005 32.2845 72.3331 33.3475 72.3331 34.5287C72.3331 35.8575 71.4247 36.7434 70.2232 36.7434C69.3148 36.7434 68.7873 36.2414 68.5236 35.7985V38.2494H68.084V32.4026ZM19.0294 32.4026H19.4397V33.0522C19.762 32.5502 20.3188 32.2845 20.9342 32.2845C21.8719 32.2845 22.2528 32.6979 22.4287 33.1999C22.7217 32.6093 23.2492 32.2845 23.9232 32.2845C25.0367 32.2845 25.5642 32.816 25.5642 33.7609V36.5958H25.1539V33.879C25.1539 33.1999 24.8023 32.6388 23.9232 32.6388C22.9854 32.6388 22.4873 33.1408 22.4873 33.9972V36.5662H22.077V33.7905C22.077 33.0817 21.7254 32.6388 20.8463 32.6388C19.9965 32.6388 19.4104 33.1408 19.4104 34.0858V36.5662H19.0001V32.4026H19.0294ZM26.707 34.6173C26.7363 35.6213 27.381 36.3595 28.5239 36.3595C29.7253 36.3595 30.0184 35.5622 30.1649 35.2079L30.5751 35.1784C30.2235 36.2709 29.5495 36.7434 28.4946 36.7434C27.1466 36.7434 26.2968 35.8871 26.2968 34.4992C26.2968 33.6133 26.8242 32.314 28.4946 32.314C29.8718 32.314 30.663 33.2885 30.663 34.6173H26.707ZM30.2235 34.2334C30.077 33.1408 29.3444 32.6683 28.4653 32.6683C27.4982 32.6683 26.8536 33.2885 26.707 34.2334H30.2235ZM34.9121 35.7985C34.6777 36.2709 34.1502 36.7434 33.1832 36.7434C31.8059 36.7434 31.0733 35.6804 31.0733 34.4992C31.0733 33.1703 31.9817 32.2845 33.1832 32.2845C34.0916 32.2845 34.6191 32.7865 34.8828 33.2294V30.808H35.2931V36.6253H34.8828V35.7985H34.9121ZM34.9707 34.5582C34.9707 33.1113 34.0037 32.6683 33.2125 32.6683C32.3334 32.6683 31.4836 33.2589 31.4836 34.4992C31.4836 35.6804 32.1868 36.3595 33.1539 36.3595C34.5898 36.3595 34.9707 35.2669 34.9707 34.5582ZM36.2894 32.4026H36.6996V36.5958H36.2894V32.4026ZM41.3003 33.7609C41.2417 33.2294 40.597 32.6683 39.6593 32.6683C38.4579 32.6683 37.8425 33.5838 37.8425 34.5582C37.8425 35.2079 38.282 36.3595 39.6593 36.3595C40.4505 36.3595 41.1831 35.9756 41.3296 35.1193L41.7399 35.0898C41.5348 36.2119 40.6557 36.7139 39.6593 36.7139C38.37 36.7139 37.4322 35.828 37.4322 34.5287C37.4322 33.0522 38.4579 32.2549 39.6593 32.2549C40.8608 32.2549 41.652 32.9932 41.6813 33.7019L41.3003 33.7609ZM45.6959 34.322C45.5787 34.4106 45.3736 34.4992 45.0805 34.4992L43.7619 34.5878C43.1172 34.6468 42.6776 34.824 42.6776 35.4146C42.6776 36.2119 43.4395 36.33 43.9084 36.33C44.6996 36.33 45.6959 35.9461 45.6959 35.0012V34.322ZM42.4432 33.7314C42.5897 32.6388 43.0879 32.2549 44.2893 32.2549C45.4322 32.2549 46.1062 32.5502 46.1062 33.4952V35.828C46.1062 36.1528 46.1062 36.3005 46.3406 36.3005C46.4578 36.3005 46.575 36.2709 46.6629 36.2414L46.6922 36.6253C46.575 36.6844 46.4285 36.6844 46.2527 36.6844C46.0183 36.6844 45.8717 36.5958 45.8131 36.4186C45.7838 36.33 45.7545 36.2414 45.7545 36.1233C45.7545 36.0347 45.7545 35.9461 45.7545 35.8575C45.2857 36.6548 44.4065 36.7434 43.9084 36.7434C43.8205 36.7434 43.6739 36.7434 43.5274 36.7139C43.3516 36.6844 43.1758 36.6548 43 36.5662C42.619 36.4186 42.2967 36.0938 42.2967 35.4441C42.2967 34.5582 43 34.2629 43.7912 34.2334L45.1391 34.1448C45.5494 34.1153 45.6959 34.0562 45.6959 33.5838C45.6959 33.0522 45.4322 32.6683 44.26 32.6683C43.2344 32.6683 42.9414 32.9932 42.8241 33.7314H42.4432ZM47.1904 30.7784H47.6007V36.5958H47.1904V30.7784ZM50.5897 34.3811C50.5897 35.5327 51.2343 36.1824 52.3772 36.1824C53.3735 36.1824 54.1354 35.6213 54.1354 34.3811C54.1354 33.318 53.4614 32.6683 52.3186 32.6683C51.4102 32.6683 50.5897 33.1999 50.5897 34.3811ZM54.1647 33.2294C54.1354 33.1113 54.1354 32.4026 54.1354 32.4026H54.5457V36.3595C54.5457 37.3045 54.2233 38.3675 52.3772 38.3675C51.1757 38.3675 50.4724 37.9837 50.3259 36.9501L50.7362 36.9206C50.8241 37.5702 51.2343 37.9837 52.3772 37.9837C53.8717 37.9837 54.1354 37.1273 54.1354 36.3595V35.5918C53.7545 36.2414 53.1098 36.5072 52.3186 36.5072C50.7948 36.5072 50.1794 35.4736 50.1794 34.3515C50.1794 33.2589 50.8241 32.2254 52.3186 32.2254C53.0219 32.2845 53.7838 32.4912 54.1647 33.2294ZM55.4834 32.4026H55.8936V33.2885C56.1867 32.6388 56.7728 32.2845 57.5054 32.2845C57.6226 32.2845 57.6812 32.314 57.7984 32.3435L57.8277 32.7865C57.7105 32.7274 57.6226 32.7274 57.3881 32.7274C56.3918 32.7274 55.8936 33.5247 55.8936 34.3515V36.6253H55.4834V32.4026ZM60.3185 36.3595C61.5493 36.3595 62.1354 35.4441 62.1354 34.4992C62.1354 33.5542 61.52 32.6388 60.3185 32.6388C59.0878 32.6388 58.5017 33.5542 58.5017 34.4992C58.5017 35.4441 59.1171 36.3595 60.3185 36.3595ZM60.3185 32.2845C61.7251 32.2845 62.5456 33.318 62.5456 34.4992C62.5456 35.6804 61.7251 36.7139 60.3185 36.7139C58.9119 36.7139 58.0914 35.6508 58.0914 34.4992C58.0914 33.318 58.9119 32.2845 60.3185 32.2845ZM67.117 36.5958H66.7068V35.8575C66.443 36.33 65.9156 36.7434 65.0657 36.7434C63.2489 36.7434 63.2489 35.5032 63.2489 35.0012V32.4321H63.6592V35.0012C63.6592 35.828 63.9522 36.3891 65.0951 36.3891C66.2379 36.3891 66.7068 35.6508 66.7068 34.8831V32.4321H67.117V36.5958Z" fill="#5D6B72"/>
<path d="M85.6077 37.836C85.6077 37.6588 85.7249 37.5407 85.9007 37.5407C86.0473 37.5407 86.1938 37.6884 86.1938 37.836C86.1938 38.0132 86.0766 38.1313 85.9007 38.1313C85.7249 38.1313 85.6077 37.9837 85.6077 37.836ZM134.311 35.2374C134.311 35.1783 134.311 35.1488 134.311 35.0897C134.252 34.2039 133.666 33.3475 132.494 33.3475C131.292 33.3475 130.706 34.2334 130.677 35.1488C130.677 36.1233 131.292 37.0387 132.494 37.0387C133.695 37.0682 134.311 36.1528 134.311 35.2374ZM118.575 35.2965C118.604 36.2119 119.219 37.0682 120.391 37.0682C121.593 37.0682 122.208 36.1528 122.208 35.2079C122.208 35.1488 122.208 35.0898 122.208 35.0602C122.15 34.1743 121.534 33.377 120.391 33.377C119.278 33.377 118.692 34.1448 118.575 34.9716C118.575 35.0602 118.575 35.1193 118.575 35.2965ZM114.999 34.4696C114.999 33.377 114.355 32.7274 113.212 32.7274C112.303 32.7274 111.454 33.2884 111.454 34.4696C111.454 35.6508 112.186 36.3005 113.358 36.3005H114.97V34.4696H114.999ZM134.721 35.0897C134.75 35.828 135.073 36.3005 136.128 36.3005C137.241 36.3005 137.534 35.7394 137.534 34.9126V30.7489H137.944V34.9421C137.944 35.4441 137.915 36.6843 136.128 36.6843C135.278 36.6843 134.809 36.4186 134.574 36.0642C134.281 36.8615 133.549 37.4521 132.494 37.4521C131.439 37.4521 130.706 36.8615 130.413 36.0642C130.179 36.4186 129.71 36.6843 128.831 36.6843H124.054C123.175 36.6843 122.736 36.3891 122.501 36.0347C122.208 36.832 121.476 37.4226 120.421 37.4226C119.366 37.4226 118.633 36.832 118.34 36.0347C118.106 36.3891 117.637 36.6548 116.787 36.6548H115.41C115.351 37.5407 114.912 38.3971 113.271 38.3971C112.069 38.3971 111.366 38.0132 111.219 36.9796L111.63 36.9501C111.717 37.5998 112.128 38.0132 113.271 38.0132C114.589 38.0132 114.941 37.334 114.999 36.6548H113.329C111.776 36.6548 111.073 35.5918 111.073 34.4401C111.073 33.318 111.717 32.314 113.212 32.314C114.706 32.3435 115.41 33.318 115.38 34.4696V36.2709H116.758C117.754 36.2709 118.076 35.8575 118.164 35.2079C118.164 35.0898 118.194 34.9716 118.194 34.883C118.311 33.82 119.102 32.9636 120.391 32.9636C121.769 32.9636 122.589 33.9676 122.618 35.1193C122.648 35.828 122.999 36.2709 124.025 36.2709H127.102V33.9381C127.102 33.1113 126.838 32.5502 125.695 32.5502C125.08 32.5502 124.699 32.7274 124.523 32.9931L124.172 32.7274C124.435 32.4026 124.904 32.1368 125.695 32.1368C127.512 32.1368 127.512 33.377 127.512 33.879V36.2119H128.86C129.915 36.2119 130.208 35.7394 130.267 35.0307C130.325 33.879 131.117 32.9046 132.494 32.9046C133.813 32.9046 134.633 33.8495 134.721 34.9421V35.0897ZM100.348 34.5877C100.348 35.2374 100.787 36.3595 102.135 36.3891C103.483 36.3595 103.952 35.2374 103.952 34.5877C103.952 33.6133 103.337 32.6979 102.106 32.6979C100.963 32.7274 100.348 33.6428 100.348 34.5877ZM104.362 34.5582V35.828C104.362 36.1528 104.362 36.33 104.597 36.33H106.912V33.9972C106.912 33.4952 106.912 32.2549 108.728 32.2549C108.963 32.2549 109.197 32.2844 109.402 32.314L109.197 32.6683C109.051 32.6388 108.904 32.6388 108.758 32.6388C107.615 32.6388 107.322 33.1999 107.322 34.0267V36.33H110.34V36.7139H104.509C104.274 36.7139 104.128 36.6253 104.069 36.4776C104.011 36.33 104.011 36.1528 103.981 35.9166C103.6 36.4481 102.926 36.8025 102.106 36.8025C100.846 36.7729 99.9373 35.887 99.9373 34.6173C99.9373 33.1408 100.934 32.373 102.135 32.3435C103.337 32.314 104.362 33.1113 104.362 34.5582ZM92.1718 34.1153C92.1718 33.2884 91.8787 32.7274 90.7652 32.7274C89.6223 32.7274 89.1242 33.4656 89.1242 34.2334V36.3005H92.1718V34.1153ZM75.5858 34.5877C75.5858 35.2374 76.0253 36.3595 77.3733 36.3891C78.7213 36.3891 79.1902 35.2374 79.1902 34.5877C79.1902 33.6133 78.5455 32.6979 77.344 32.6979C76.1719 32.7274 75.5858 33.6428 75.5858 34.5877ZM95.3659 34.9421V30.867H95.7761V34.9421C95.7761 35.4441 95.7468 36.6843 93.9593 36.6843H92.5527H92.2011H87.4538C86.5454 36.6843 86.0766 36.3595 85.8421 35.9756C85.637 36.3891 85.1681 36.7434 84.2011 36.7434C83.2341 36.7434 82.7652 36.3891 82.5601 35.9756C82.3257 36.3595 81.8861 36.6843 80.9484 36.6843H79.7469C79.2781 36.6843 79.2195 36.33 79.2195 35.8575C78.8678 36.4481 78.1352 36.7729 77.344 36.7729C76.084 36.7434 75.1755 35.887 75.1755 34.5877C75.1755 33.1408 76.1719 32.3435 77.3733 32.314C78.5748 32.314 79.5711 33.1113 79.5711 34.5877V35.828C79.5711 36.1528 79.5711 36.3005 79.8055 36.3005H80.9484C82.0912 36.3005 82.355 35.7394 82.355 34.9126V32.4321H82.7652V35.0012C82.7652 35.828 83.0583 36.3891 84.2011 36.3891C85.344 36.3891 85.6077 35.828 85.6077 35.0012V32.4321H86.018V34.9716C86.018 35.7689 86.311 36.3005 87.4245 36.3005H88.6846V30.8375H89.0949V33.2294C89.3586 32.7569 89.8861 32.3435 90.7359 32.3435C92.5527 32.3435 92.5527 33.5837 92.5527 34.0857V36.3005H93.93C95.1021 36.33 95.3659 35.7689 95.3659 34.9421ZM97.0069 30.867H97.4171V36.6843H97.0069V30.867ZM139.029 30.808H139.439V36.6253H139.029V30.808ZM76.7286 31.1918C76.7286 31.0147 76.8459 30.8965 77.0217 30.8965C77.1682 30.8965 77.3147 31.0442 77.3147 31.1918C77.3147 31.369 77.1682 31.4871 77.0217 31.4871C76.8459 31.4871 76.7286 31.3395 76.7286 31.1918ZM77.5198 31.1918C77.5198 31.0147 77.6371 30.8965 77.8129 30.8965C77.9887 30.8965 78.1059 31.0442 78.1059 31.1918C78.1059 31.369 77.9887 31.4871 77.8129 31.4871C77.6371 31.4871 77.5198 31.3395 77.5198 31.1918ZM101.461 31.1623C101.461 30.9851 101.578 30.867 101.754 30.867C101.901 30.867 102.047 31.0147 102.047 31.1623C102.047 31.3395 101.93 31.4576 101.754 31.4576C101.608 31.4871 101.461 31.3395 101.461 31.1623ZM102.252 31.1623C102.252 30.9851 102.369 30.867 102.545 30.867C102.692 30.867 102.838 31.0147 102.838 31.1623C102.838 31.3395 102.721 31.4576 102.545 31.4576C102.399 31.4871 102.252 31.3395 102.252 31.1623ZM125.197 37.8065C125.197 37.6293 125.314 37.5112 125.49 37.5112C125.637 37.5112 125.783 37.6588 125.783 37.8065C125.783 37.9836 125.637 38.1018 125.49 38.1018C125.314 38.1313 125.197 37.9836 125.197 37.8065ZM81.9447 37.836C81.9447 37.6588 82.0912 37.5407 82.2378 37.5407C82.3843 37.5407 82.5308 37.6884 82.5308 37.836C82.5308 38.0132 82.4136 38.1313 82.2378 38.1313C82.0912 38.1313 81.9447 37.9837 81.9447 37.836ZM82.7359 37.836C82.7359 37.6588 82.8531 37.5407 83.029 37.5407C83.2048 37.5407 83.322 37.6884 83.322 37.836C83.322 38.0132 83.2048 38.1313 83.029 38.1313C82.8824 38.1313 82.7359 37.9837 82.7359 37.836Z" fill="#5D6B72"/>
<path d="M53.5089 11.7316V3.25656V2.42973C53.5089 2.10491 53.7434 1.86867 54.1243 1.86867C54.5053 1.86867 54.7397 2.07538 54.7397 2.4002V3.25656V11.7316H53.5089ZM85.7139 12.3221C86.2706 11.7906 86.2706 11.2 86.2706 9.98931V9.31013V9.01483C86.2706 7.686 86.2413 7.09541 85.7139 6.59341C85.3915 6.26858 84.864 6.06187 84.2194 6.06187C83.5454 6.06187 82.9593 6.26858 82.6076 6.59341C82.0509 7.12494 82.0802 7.77459 82.0802 8.42424V9.2806V10.4913C82.0802 11.141 82.0509 11.7906 82.6076 12.3221C82.9886 12.6765 83.5454 12.8537 84.2194 12.8537C84.864 12.8537 85.3622 12.647 85.7139 12.3221ZM125.889 7.30212C125.889 8.92624 125.948 10.0484 125.069 10.8752C124.571 11.3477 123.78 11.7316 122.578 11.7316C121.611 11.7316 120.673 11.4363 120.058 10.8457L119.677 10.8752C119.179 11.3477 118.388 11.7316 117.186 11.7316C116.424 11.7316 115.692 11.5544 115.106 11.2V11.7316H108.395C107.428 11.7316 106.49 11.4363 105.875 10.8457C105.611 10.7275 105.553 10.7866 105.494 10.8752C104.996 11.3477 104.175 11.7316 103.003 11.7316H98.6369C97.7577 11.702 96.9079 11.4067 96.3218 10.8457H95.9702C95.3255 11.4363 94.4171 11.7316 93.4501 11.7316H87.5307C87.3256 12.2336 87.1204 12.647 86.7395 13.0013C86.2413 13.4738 85.4501 13.8577 84.2487 13.8577C83.2816 13.8577 82.3439 13.5624 81.7285 12.9718C81.3183 12.5879 81.1132 12.145 81.0252 11.702L73.7872 11.7316C72.8202 11.7316 71.8824 11.4363 71.2671 10.8457C70.4466 10.0779 70.4759 9.07389 70.4759 8.21753V2.4002C70.4759 2.07538 70.7103 1.86867 71.0912 1.86867C71.5015 1.86867 71.7066 2.10491 71.7066 2.42973V3.25656V8.36518C71.7066 9.01483 71.6773 9.66448 72.2341 10.196C72.615 10.5504 73.1718 10.7275 73.8458 10.7275H80.8787L80.9373 10.3437V8.66048C80.9373 7.71553 80.908 6.71152 81.7285 5.94375C82.3732 5.35316 83.2816 5.05787 84.2487 5.05787C85.4501 5.05787 86.2413 5.44175 86.7395 5.91423C87.5307 6.65246 87.56 7.62694 87.56 8.95577V9.90072C87.56 10.196 87.56 10.4913 87.56 10.7571H93.4501C94.1241 10.7571 94.6808 10.5504 95.0618 10.2255C95.5306 9.7826 95.5892 9.25107 95.5892 8.69001V8.39471V6.44576V5.61893C95.5892 5.2941 95.8237 5.05787 96.2046 5.05787C96.5856 5.05787 96.82 5.26457 96.82 5.5894V6.44576V8.24706C96.82 9.04436 96.7907 9.69401 97.3475 10.196C97.6698 10.4913 98.1387 10.698 98.6955 10.7275H103.091C103.765 10.7275 104.263 10.5208 104.586 10.196C105.201 9.60542 105.142 8.95577 105.142 7.47929L105.113 5.44175V2.4002C105.113 2.07538 105.347 1.86867 105.728 1.86867C106.139 1.86867 106.344 2.10491 106.344 2.42973V3.25656V5.5894V7.33164C106.344 7.74506 106.344 8.09941 106.344 8.45377C106.344 9.10342 106.344 9.72354 106.871 10.2255C107.252 10.5799 107.809 10.7571 108.483 10.7571H113.933V5.55987C113.963 5.2941 114.139 5.0874 114.461 5.05787C114.93 5.0874 115.135 5.26457 115.164 5.55987V6.29811V8.83765C115.194 9.33966 115.281 9.81213 115.692 10.196C116.073 10.5504 116.629 10.7275 117.303 10.7275C117.977 10.7275 118.476 10.5208 118.798 10.196C119.413 9.60542 119.355 8.95577 119.355 7.47929V5.53034C119.384 5.23504 119.589 5.02834 119.97 5.02834C120.351 5.02834 120.556 5.23504 120.585 5.55987V7.30212V8.36518C120.585 9.04436 120.556 9.69401 121.113 10.196C121.494 10.5504 122.051 10.7275 122.725 10.7275C123.399 10.7275 123.897 10.5208 124.219 10.196C124.834 9.60542 124.776 8.95577 124.776 7.47929V5.53034C124.805 5.23504 125.01 5.02834 125.391 5.02834C125.772 5.02834 125.977 5.23504 126.007 5.55987V7.30212H125.889ZM130.109 11.1705C130.109 11.5248 129.816 11.8201 129.435 11.8201C129.054 11.8201 128.761 11.5248 128.761 11.1705C128.761 10.8161 129.054 10.5208 129.435 10.5208C129.816 10.5208 130.109 10.8161 130.109 11.1705ZM130.988 11.7316L131.018 10.7275H135.911C137.816 10.6685 138.314 9.87119 138.373 8.4833C138.314 7.09541 137.845 6.15046 135.911 6.0914C135.706 6.0914 135.413 6.12093 135.091 6.17999C134.651 6.26858 134.71 6.23905 134.3 6.35717C133.86 6.50482 133.684 5.82564 133.977 5.55987L134.212 5.44175C134.505 5.32363 134.886 5.20551 135.325 5.11693C135.56 5.0874 135.823 5.05787 136.087 5.05787C138.431 5.11693 139.398 6.35717 139.457 8.42424C139.398 10.4323 138.431 11.643 136.087 11.702L130.988 11.7316ZM97.6112 13.4147C97.6112 13.7691 97.3182 14.0644 96.9372 14.0644C96.5563 14.0644 96.2632 13.7691 96.2632 13.4147C96.2632 13.0604 96.5563 12.7946 96.9372 12.7946C97.2889 12.7946 97.6112 13.0604 97.6112 13.4147ZM95.7651 13.4147C95.7651 13.7691 95.472 14.0644 95.0911 14.0644C94.7101 14.0644 94.4171 13.7691 94.4171 13.4147C94.4171 13.0604 94.7101 12.7946 95.0911 12.7946C95.472 12.7946 95.7651 13.0604 95.7651 13.4147ZM64.703 2.25256C64.703 2.60691 64.41 2.90221 64.029 2.90221C63.6481 2.90221 63.355 2.60691 63.355 2.25256C63.355 1.8982 63.6774 1.60291 64.029 1.60291C64.41 1.60291 64.703 1.8982 64.703 2.25256ZM33.6702 5.53034L33.934 5.41222C34.227 5.2941 34.5787 5.17599 35.0475 5.0874C35.2819 5.05787 35.5457 5.02834 35.8094 5.02834C38.1244 5.02834 39.9999 6.71152 39.9999 9.60542C39.9999 10.0188 39.9706 10.4027 39.8827 10.7571H40.3515H47.15C47.824 10.7571 48.4101 10.5504 48.7617 10.2255C49.3185 9.69401 49.2892 9.04436 49.2892 8.39471V3.25656V2.4002C49.2892 2.07538 49.4943 1.83914 49.9046 1.83914C50.2855 1.83914 50.5199 2.04585 50.5199 2.37067V3.22703V8.21753C50.5199 9.07389 50.5493 10.0484 49.7287 10.8457C49.1134 11.4363 48.1756 11.7316 47.2086 11.7316H40.4101H29.2454C28.1904 11.6725 27.4578 11.3181 26.989 10.8752C26.9011 10.7866 26.8424 10.7275 26.7838 10.639C26.7252 10.7275 26.6373 10.7866 26.5787 10.8752C26.0805 11.3477 25.2893 11.7316 24.0879 11.7316H20.3663C19.4286 11.702 18.5202 11.4363 17.9341 10.8457C17.6703 10.7275 17.6117 10.7866 17.5238 10.8752C17.0257 11.3477 16.2345 11.7316 15.033 11.7316H11.4579C10.5202 11.702 9.64109 11.4363 9.05502 10.8457C8.79128 10.7275 8.73267 10.7866 8.64476 10.8752C8.1759 11.3181 7.44331 11.6725 6.38837 11.7316H3.31146C2.34444 11.7316 1.40671 11.4363 0.791333 10.8457C-0.0291739 10.0779 0.000130243 9.07389 0.000130243 8.21753V6.41623V5.55987C0.000130243 5.23504 0.234561 5.02834 0.615511 5.02834C1.02576 5.02834 1.23089 5.26457 1.23089 5.5894V6.41623V8.36518C1.23089 9.01483 1.20159 9.66448 1.75836 10.196C2.13931 10.5504 2.69608 10.7275 3.37007 10.7275H6.38837C6.97444 10.698 7.414 10.4913 7.70704 10.196C8.11729 9.81213 8.23451 9.36919 8.26381 8.69001V8.21753V6.41623V5.55987C8.26381 5.23504 8.49824 5.02834 8.87919 5.02834C9.28945 5.02834 9.49457 5.26457 9.49457 5.5894V6.41623V8.36518C9.49457 9.01483 9.46527 9.66448 10.022 10.196C10.3737 10.5208 10.8719 10.698 11.4872 10.7275H15.0916C15.7656 10.7275 16.2638 10.5208 16.5861 10.196C17.0257 9.7826 17.1136 9.33966 17.1429 8.60142V8.21753V6.41623V5.55987C17.1429 5.23504 17.3773 5.02834 17.7583 5.02834C18.1685 5.02834 18.3736 5.26457 18.3736 5.5894V6.41623V8.36518C18.3736 9.01483 18.3443 9.66448 18.9011 10.196C19.2528 10.5208 19.7802 10.7275 20.4249 10.7275H24.1172C24.7912 10.7275 25.2893 10.5208 25.6117 10.196C26.0805 9.75307 26.1685 9.2806 26.1685 8.42424C26.1685 8.06988 26.1685 7.71553 26.1685 7.30212V5.55987C26.1978 5.26457 26.4029 5.02834 26.7838 5.02834C27.1355 5.02834 27.3699 5.23504 27.3699 5.53034V7.47929C27.3699 8.95577 27.3113 9.60542 27.9267 10.196C28.2197 10.4618 28.6593 10.6685 29.2454 10.7275H38.7398C38.8277 10.3437 38.8863 9.93025 38.8863 9.4873C38.8863 7.33164 37.509 6.03234 35.7801 6.03234H35.575C35.3699 6.03234 35.1354 6.06187 34.8131 6.12093C34.3735 6.20952 34.4321 6.17999 34.0219 6.29811C33.553 6.44576 33.3772 5.79611 33.6702 5.53034ZM19.3114 13.4147C19.3114 13.7691 19.0183 14.0644 18.6374 14.0644C18.2564 14.0644 17.9634 13.7691 17.9634 13.4147C17.9634 13.0604 18.2564 12.7946 18.6374 12.7946C19.0183 12.7946 19.3114 13.0604 19.3114 13.4147ZM17.4945 13.4147C17.4945 13.7691 17.2015 14.0644 16.8205 14.0644C16.4396 14.0644 16.1465 13.7691 16.1465 13.4147C16.1465 13.0604 16.4689 12.7946 16.8205 12.7946C17.2015 12.7946 17.4945 13.0604 17.4945 13.4147ZM5.50925 13.4147C5.50925 13.7691 5.21621 14.0644 4.83526 14.0644C4.45431 14.0644 4.16127 13.7691 4.16127 13.4147C4.16127 13.0604 4.45431 12.7946 4.83526 12.7946C5.21621 12.7946 5.50925 13.0604 5.50925 13.4147ZM66.1389 9.63495V5.55987C66.1682 5.26457 66.3733 5.05787 66.7543 5.05787C67.1352 5.05787 67.3403 5.26457 67.3697 5.5894V9.45778C67.3697 11.0819 67.4283 12.204 66.5491 13.0309C66.051 13.5033 65.2598 13.8872 64.0583 13.8872C63.0913 13.8872 62.1536 13.5919 61.5382 13.0013C60.7177 12.2336 60.747 11.2296 60.747 10.3732V6.44576V5.5894C60.747 5.26457 60.9814 5.05787 61.3624 5.05787C61.7726 5.05787 61.9777 5.2941 61.9777 5.61893V6.44576V10.4913C61.9777 11.141 61.9484 11.7906 62.5052 12.3221C62.8862 12.6765 63.4429 12.8537 64.1169 12.8537C64.7909 12.8537 65.2891 12.6174 65.6114 12.3221C66.1975 11.7611 66.1389 11.0819 66.1389 9.63495ZM27.3699 13.4147C27.3699 13.7691 27.0769 14.0644 26.6959 14.0644C26.315 14.0644 26.0219 13.7691 26.0219 13.4147C26.0219 13.0604 26.315 12.7946 26.6959 12.7946C27.0769 12.7946 27.3699 13.0604 27.3699 13.4147Z" fill="#5D6B72"/>
<path d="M20.1318 19.6453C20.1318 18.287 21.2746 17.342 22.945 17.3125C23.8241 17.342 24.4102 17.5487 24.9083 17.7259C25.3479 17.9031 25.1721 18.7299 24.6739 18.5527C24.2636 18.4642 24.2929 18.4642 23.8534 18.3756C23.5603 18.3165 23.3845 18.287 23.2087 18.287C22.0952 18.287 21.3919 18.7595 21.3919 19.5272C21.3919 20.354 22.2124 20.6198 23.0915 21.0332C23.912 21.4171 25.6995 22.0668 25.6995 23.7499C25.6995 25.1674 24.586 26.2895 22.7105 26.2895C21.0988 26.2895 20.0146 25.4627 19.8974 25.3445L20.4834 24.5472C20.6593 24.6358 21.5384 25.2855 22.6519 25.2855C23.7655 25.2855 24.4395 24.6358 24.4395 23.8681C24.4395 22.9231 23.2673 22.4506 22.3003 22.0077C21.0988 21.4762 20.1318 20.9151 20.1318 19.6453ZM138.285 23.6318C138.285 23.2775 138.168 22.9527 137.875 22.6574C137.318 22.1258 136.439 22.1849 135.501 22.1849H134.739V25.1674H135.765C136.849 25.1674 137.406 25.0788 137.875 24.6358C138.138 24.3996 138.285 23.9862 138.285 23.6318ZM137.992 19.8225C137.992 19.4386 137.875 19.0843 137.64 18.8776C137.142 18.3756 136.292 18.4051 135.53 18.4051H134.739V21.299H135.442C136.204 21.299 137.054 21.2695 137.582 20.8265C137.845 20.5903 137.992 20.2655 137.992 19.8225ZM133.567 17.4601H134.182H134.886H136.087C137.025 17.4601 137.875 17.4897 138.549 18.1098C139.047 18.5823 139.252 19.1138 139.252 19.7635C139.252 21.1218 138.197 21.5943 137.787 21.6533C138.695 21.7715 139.545 22.3621 139.545 23.5728C139.545 24.252 139.31 24.8721 138.871 25.2855C137.992 26.1123 136.849 26.0828 135.208 26.0828H133.596V18.9071V17.4601H133.567ZM127.032 23.6318C127.032 23.2775 126.915 22.9527 126.622 22.6574C126.065 22.1258 125.186 22.1849 124.248 22.1849H123.486V25.1674H124.512C125.567 25.1674 126.124 25.0788 126.651 24.6358C126.886 24.3996 127.032 23.9862 127.032 23.6318ZM126.739 19.8225C126.739 19.4386 126.622 19.0843 126.388 18.8776C125.889 18.3756 125.04 18.4051 124.278 18.4051H123.486V21.299H124.19C124.952 21.299 125.801 21.2695 126.329 20.8265C126.593 20.5903 126.739 20.2655 126.739 19.8225ZM122.285 26.1123V18.3165C122.285 17.6964 122.431 17.4601 122.9 17.4601H123.633H124.834C125.772 17.4601 126.622 17.4897 127.296 18.1098C127.794 18.5823 127.999 19.1138 127.999 19.7635C127.999 21.1218 126.944 21.5943 126.534 21.6533C127.442 21.7715 128.292 22.3621 128.292 23.5728C128.292 24.252 128.058 24.8721 127.618 25.2855C126.739 26.1123 125.596 26.0828 123.955 26.0828H122.285V26.1123ZM118.475 22.9231L116.922 18.7004L115.399 22.9231H118.475ZM112.996 26.1123L115.809 18.7594L116.102 18.0803C116.278 17.6078 116.6 17.4897 116.922 17.4897C117.303 17.4897 117.626 17.6078 117.801 18.0803L118.153 18.9071L120.937 26.1418H119.648L118.798 23.8976H115.047L114.197 26.1418H112.996V26.1123ZM91.5159 22.9231L89.9921 18.7004L88.4683 22.9231H91.5159ZM86.0361 26.1123L88.8493 18.7594L89.1423 18.0803C89.3182 17.6078 89.6405 17.4897 89.9628 17.4897C90.3438 17.4897 90.6661 17.6078 90.842 18.0803L91.1936 18.9071L93.9775 26.1418H92.6881L91.8676 23.8976H88.1167L87.2669 26.1418H86.0361V26.1123ZM71.0033 22.9231L69.4795 18.7004L67.9557 22.9231H71.0033ZM65.5234 26.1123L68.3366 18.7594L68.6296 18.0803C68.8055 17.6078 69.1278 17.4897 69.4502 17.4897C69.8311 17.4897 70.1534 17.6078 70.3293 18.0803L70.6809 18.9071L73.4648 26.1418H72.1754L71.3256 23.8976H67.5747L66.7542 26.1418H65.5234V26.1123ZM47.3844 22.9231L45.8313 18.7004L44.3075 22.9231H47.3844ZM41.9045 26.1123L44.7177 18.7594L45.0108 18.0803C45.1866 17.6078 45.5089 17.4897 45.8313 17.4897C46.2122 17.4897 46.5346 17.6078 46.7104 18.0803L47.062 18.9071L49.8752 26.1418H48.5858L47.7653 23.8976H43.9558L43.1353 26.1418H41.9045V26.1123ZM13.7729 19.9111C13.7729 19.4386 13.5677 19.0843 13.3626 18.8776C12.8937 18.4051 12.2491 18.4051 11.4872 18.4051H10.5494V21.5057H10.9597C11.8388 21.5057 12.7179 21.5352 13.304 20.9742C13.597 20.7084 13.7729 20.3245 13.7729 19.9111ZM9.34799 18.1098C9.31868 17.6964 9.58242 17.4897 9.96337 17.4897H11.3699C12.6007 17.4897 13.5384 17.4897 14.271 18.1689C14.7106 18.5823 14.9743 19.1729 14.9743 19.8816C14.9743 20.4722 14.7985 20.9742 14.4175 21.3581C14.0952 21.6829 13.5677 21.9782 12.9524 22.0372C13.2454 22.0668 13.5677 22.2144 13.7436 22.3916C14.0073 22.6574 14.2124 23.0708 14.4469 23.6023L15.619 26.1123H14.3589L13.304 23.8681C12.6593 22.5392 12.3663 22.4211 11.1355 22.4211H10.5494V26.1123H9.34799V18.1098ZM6.27108 21.7419C6.27108 20.8561 6.06595 19.9997 5.30406 19.2615C4.51285 18.5232 3.60443 18.4346 2.02203 18.4346H1.23082V25.1969H2.37367C3.60443 25.1969 4.57146 25.0788 5.36266 24.311C5.97804 23.7204 6.27108 22.7755 6.27108 21.7419ZM0.615442 17.4897H2.02203C3.78026 17.4897 5.12823 17.5487 6.21247 18.5823C7.03298 19.35 7.50184 20.4722 7.50184 21.7419C7.50184 23.0412 7.03298 24.1634 6.21247 24.9607C5.06963 26.0533 3.69234 26.1123 1.99272 26.1123H6.10352e-05V18.1393C6.10352e-05 17.7259 0.205188 17.5192 0.615442 17.4897ZM130.109 26.1123V17.9622C130.138 17.6669 130.373 17.4601 130.724 17.4601C131.105 17.4601 131.311 17.6669 131.34 17.9622V26.1123H130.109ZM105.113 26.1123V17.9622C105.142 17.6669 105.377 17.4897 105.728 17.4897C106.109 17.4897 106.314 17.6964 106.344 17.9917V18.4051V21.0923H110.534V17.9622C110.563 17.6669 110.798 17.4601 111.15 17.4601C111.53 17.4601 111.736 17.6669 111.765 17.9326V26.1123H110.534V22.0963H106.344V26.1418H105.113V26.1123ZM95.2082 26.1123V17.9917C95.2375 17.6964 95.4427 17.4897 95.8236 17.4897C96.2046 17.4897 96.4097 17.6964 96.439 17.9622V25.1378H100.219V26.1123H95.2082ZM80.3512 24.3996L80.3219 18.3756V18.0212C80.3219 17.7259 80.527 17.4897 80.8787 17.4897C81.201 17.4897 81.4061 17.6964 81.4354 17.9917V18.7004V26.1123H80.2047L75.897 19.2319L75.9263 26.1123H74.8128V18.0803C74.8128 17.5487 75.2816 17.4897 75.5747 17.4897C75.9556 17.5192 76.1021 17.6669 76.3952 18.0803L80.3512 24.3996ZM54.4466 26.1123L55.355 18.0803C55.4722 17.5487 55.9118 17.4601 56.2048 17.4601C56.5858 17.4601 56.8495 17.6669 56.996 17.9917L59.4868 24.4882L61.8898 17.9622C62.0363 17.6373 62.3 17.4601 62.6224 17.4306C62.974 17.4306 63.4136 17.4897 63.5015 18.0507L64.4392 26.0828H63.2377L62.4758 19.0843L59.8971 26.0828H58.8715L56.2341 19.0843L55.5308 26.0828H54.4466V26.1123ZM51.1353 26.1123V17.9622C51.1646 17.6964 51.3404 17.4897 51.6627 17.4601C52.1316 17.4897 52.3367 17.6669 52.366 17.9622V18.7004V26.1123H51.1353ZM36.1903 26.1123V18.848V17.9917C36.1903 17.6964 36.4247 17.4601 36.8057 17.4601C37.1866 17.4601 37.3918 17.6669 37.4211 17.9622V25.1083H41.2013V26.0828H36.1903V26.1123ZM32.879 22.0372V17.9917C32.9083 17.6964 33.1134 17.4897 33.465 17.4897C33.846 17.4897 34.0511 17.6964 34.0804 18.0212V21.8896C34.0804 23.4842 34.139 24.6358 33.2599 25.4627C32.7618 25.9351 31.9705 26.319 30.7691 26.319C29.8021 26.319 28.8643 26.0237 28.249 25.4331C27.4285 24.6654 27.4578 23.6614 27.4578 22.805V18.8776V18.0212C27.4578 17.7259 27.6922 17.4897 28.0731 17.4897C28.4834 17.4897 28.6885 17.7259 28.6885 18.0507V18.8776V22.9231C28.6885 23.5728 28.6592 24.2224 29.216 24.754C29.5969 25.1083 30.1537 25.2855 30.8277 25.2855C31.5017 25.2855 31.9999 25.0788 32.3222 24.754C32.9376 24.1634 32.879 23.5137 32.879 22.0372Z" fill="#5D6B72"/>
<path d="M186.314 4.31979V35.7393C186.255 37.8654 184.468 39.4895 182.299 39.5486H151.53C149.362 39.5191 147.574 37.8654 147.545 35.7393V4.26073C147.604 2.1346 149.362 0.480946 151.53 0.451416H182.27C184.468 0.480946 186.285 2.19366 186.314 4.31979ZM153.201 33.1111C153.201 33.1111 154.549 33.1111 155.516 33.1111L162.754 33.1407C163.633 33.1407 164.336 32.2252 164.365 30.8669V24.7543C164.365 23.455 164.951 22.451 165.831 22.3919L168.058 22.3624C168.966 22.4214 169.581 23.455 169.581 24.7543V30.8964C169.611 32.2252 170.226 33.1111 171.105 33.1111L180.863 33.1407L180.893 25.6106C180.893 24.3113 180.277 23.3073 179.369 23.2483L175.442 23.2187C174.563 23.2187 173.889 22.3033 173.86 20.9449L173.83 18.9074C173.86 17.5786 174.563 16.6632 175.413 16.6632H179.34C180.248 16.6041 180.805 15.541 180.805 14.2417V4.82179C180.805 4.82179 179.779 6.6231 177.787 6.71169H171.164C170.314 6.71169 169.581 7.65663 169.552 8.98547V15.039C169.523 16.3679 168.849 17.3128 167.97 17.3128L165.977 17.2833C165.098 17.2833 164.424 16.3679 164.365 15.039V8.92641C164.336 7.59758 163.633 6.68216 162.783 6.68216H153.171V14.1827C153.171 15.482 153.787 16.5155 154.666 16.5746L158.593 16.545C159.472 16.6041 160.116 17.6672 160.116 18.9665V20.7087C160.116 22.008 159.501 23.0415 158.622 23.1006H154.666C153.757 23.1597 153.171 24.1932 153.171 25.4925L153.201 33.1111Z" fill="#E74F54"/>
</svg>
